<svg width="64" height="60" viewBox="0 0 64 60" fill="none" xmlns="http://www.w3.org/2000/svg">
<g clip-path="url(#clip0)" filter="url(#filter0_d)">
<path d="M54.1667 51.3334H9.83333C6.618 51.3334 4 48.7154 4 45.5V40.8334C4 40.1894 4.52267 39.6667 5.16667 39.6667H6.33333C8.907 39.6667 11 37.5737 11 35C11 32.4264 8.907 30.3334 6.33333 30.3334H5.16667C4.52267 30.3334 4 29.8107 4 29.1667V24.5C4 21.2847 6.618 18.6667 9.83333 18.6667H54.1667C57.382 18.6667 60 21.2847 60 24.5V29.1667C60 29.8107 59.4773 30.3334 58.8333 30.3334H57.6667C55.093 30.3334 53 32.4264 53 35C53 36.246 53.4853 37.4174 54.3673 38.2994C55.247 39.1814 56.4183 39.6667 57.6643 39.6667H58.831C59.475 39.6667 59.9977 40.1894 59.9977 40.8334V45.5C60 48.7154 57.382 51.3334 54.1667 51.3334ZM6.33333 42V45.5C6.33333 47.4297 7.90367 49 9.83333 49H54.1667C56.0963 49 57.6667 47.4297 57.6667 45.5V42H57.6643C55.7953 42 54.0383 41.272 52.7177 39.9514C51.3947 38.6284 50.6667 36.869 50.6667 35C50.6667 31.1407 53.8073 28 57.6667 28V24.5C57.6667 22.5704 56.0963 21 54.1667 21H9.83333C7.90367 21 6.33333 22.5704 6.33333 24.5V28C10.1927 28 13.3333 31.1407 13.3333 35C13.3333 38.8594 10.1927 42 6.33333 42Z" fill="#F5D15F"/>
<path d="M23.8333 23.3334C23.1893 23.3334 22.6666 22.8107 22.6666 22.1667V19.8334C22.6666 19.1894 23.1893 18.6667 23.8333 18.6667C24.4773 18.6667 25 19.1894 25 19.8334V22.1667C25 22.8107 24.4773 23.3334 23.8333 23.3334Z" fill="#F2E8C9"/>
<path d="M23.8333 43.0757C23.1893 43.0757 22.6666 42.553 22.6666 41.909V37.9633C22.6666 37.3193 23.1893 36.7967 23.8333 36.7967C24.4773 36.7967 25 37.317 25 37.9633V41.9113C25 42.5553 24.4773 43.0757 23.8333 43.0757ZM23.8333 33.2057C23.1893 33.2057 22.6666 32.683 22.6666 32.039V28.091C22.6666 27.447 23.1893 26.9243 23.8333 26.9243C24.4773 26.9243 25 27.447 25 28.091V32.039C25 32.683 24.4773 33.2057 23.8333 33.2057Z" fill="#F2E8C9"/>
<path d="M23.8333 51.3334C23.1893 51.3334 22.6666 50.8107 22.6666 50.1667V47.8334C22.6666 47.1894 23.1893 46.6667 23.8333 46.6667C24.4773 46.6667 25 47.1894 25 47.8334V50.1667C25 50.8107 24.4773 51.3334 23.8333 51.3334Z" fill="#F2E8C9"/>
<path d="M9.83412 21C9.36045 21 8.91478 20.7107 8.74212 20.2417C8.51578 19.6373 8.82145 18.9653 9.42578 18.7413L46.5258 4.88832C48.3294 4.21165 50.4481 5.22432 51.0641 7.04198L55.2711 19.4577C55.4764 20.069 55.1498 20.7293 54.5408 20.937C53.9364 21.1447 53.2691 20.8157 53.0614 20.2067L48.8544 7.79098C48.6491 7.18432 47.9444 6.85298 47.3401 7.07232L10.2401 20.9253C10.1071 20.9767 9.96945 21 9.83412 21Z" fill="#F2E8C9"/>
</g>
<defs>
<filter id="filter0_d" x="0" y="0" width="64" height="64" filterUnits="userSpaceOnUse" color-interpolation-filters="sRGB">
<feFlood flood-opacity="0" result="BackgroundImageFix"/>
<feColorMatrix in="SourceAlpha" type="matrix" values="0 0 0 0 0 0 0 0 0 0 0 0 0 0 0 0 0 0 127 0"/>
<feOffset dy="4"/>
<feGaussianBlur stdDeviation="2"/>
<feColorMatrix type="matrix" values="0 0 0 0 0 0 0 0 0 0 0 0 0 0 0 0 0 0 0.25 0"/>
<feBlend mode="normal" in2="BackgroundImageFix" result="effect1_dropShadow"/>
<feBlend mode="normal" in="SourceGraphic" in2="effect1_dropShadow" result="shape"/>
</filter>
<clipPath id="clip0">
<rect width="56" height="56" fill="white" transform="translate(4)"/>
</clipPath>
</defs>
</svg>
