<svg width="1440" height="1173" viewBox="0 0 1440 1173" fill="none" xmlns="http://www.w3.org/2000/svg">
<ellipse cx="83.6678" cy="929.883" rx="0.540611" ry="0.383456" fill="#C4C4C4"/>
<ellipse cx="37.7161" cy="1019.34" rx="1.08122" ry="0.767878" fill="#C4C4C4"/>
<ellipse cx="119.348" cy="794.736" rx="0.540611" ry="0.383456" fill="#C4C4C4"/>
<ellipse cx="151.785" cy="641.929" rx="0.540611" ry="0.383456" fill="#C4C4C4"/>
<ellipse cx="105.833" cy="1046.98" rx="1.08122" ry="0.767878" fill="#C4C4C4"/>
<ellipse cx="277.207" cy="821.612" rx="0.540611" ry="0.383456" fill="#C4C4C4"/>
<ellipse cx="33.3912" cy="861.926" rx="1.08122" ry="0.767878" fill="#C4C4C4"/>
<ellipse cx="325.321" cy="1104.58" rx="1.08122" ry="0.767878" fill="#C4C4C4"/>
<ellipse cx="238.823" cy="1070.02" rx="1.08122" ry="0.767878" fill="#C4C4C4"/>
<ellipse cx="228.011" cy="1040.07" rx="1.08122" ry="0.767878" fill="#C4C4C4"/>
<ellipse cx="337.755" cy="720.252" rx="0.540611" ry="0.383456" fill="#C4C4C4"/>
<ellipse cx="92.3177" cy="731.002" rx="0.540611" ry="0.383456" fill="#C4C4C4"/>
<ellipse cx="280.45" cy="793.2" rx="0.540611" ry="0.383456" fill="#C4C4C4"/>
<ellipse cx="153.947" cy="702.591" rx="0.540611" ry="0.383456" fill="#C4C4C4"/>
<ellipse cx="180.978" cy="758.646" rx="0.540611" ry="0.383456" fill="#C4C4C4"/>
<ellipse cx="1221.65" cy="827.372" rx="1.08122" ry="0.767878" fill="#C4C4C4"/>
<ellipse cx="1210.84" cy="797.424" rx="1.08122" ry="0.767878" fill="#C4C4C4"/>
<ellipse cx="290.722" cy="703.743" rx="1.08122" ry="0.767878" fill="#C4C4C4"/>
<ellipse cx="793.49" cy="541.721" rx="1.08122" ry="0.767878" fill="#C4C4C4"/>
<ellipse cx="327.483" cy="780.531" rx="1.08122" ry="0.767878" fill="#C4C4C4"/>
<ellipse cx="292.884" cy="767.477" rx="1.08122" ry="0.767878" fill="#C4C4C4"/>
<ellipse cx="901.612" cy="511.773" rx="1.08122" ry="0.767878" fill="#C4C4C4"/>
<ellipse cx="189.087" cy="752.887" rx="1.08122" ry="0.767878" fill="#C4C4C4"/>
<ellipse cx="708.073" cy="669.957" rx="1.08122" ry="0.767878" fill="#C4C4C4"/>
<ellipse cx="1288.15" cy="942.169" rx="0.540611" ry="0.383456" fill="#C4C4C4"/>
<ellipse cx="810.249" cy="518.301" rx="0.540611" ry="0.383456" fill="#C4C4C4"/>
<ellipse cx="1271.93" cy="1081.92" rx="0.540611" ry="0.383456" fill="#C4C4C4"/>
<ellipse cx="922.695" cy="549.783" rx="0.540611" ry="0.383456" fill="#C4C4C4"/>
<ellipse cx="1350.86" cy="1013.58" rx="0.540611" ry="0.383456" fill="#C4C4C4"/>
<ellipse cx="1332.48" cy="543.641" rx="0.540611" ry="0.383456" fill="#C4C4C4"/>
<ellipse cx="1386" cy="1041.61" rx="1.08122" ry="0.767878" fill="#C4C4C4"/>
<ellipse cx="1298.96" cy="1006.67" rx="0.540611" ry="0.383456" fill="#C4C4C4"/>
<ellipse cx="164.759" cy="883.042" rx="0.540611" ry="0.383456" fill="#C4C4C4"/>
<ellipse cx="1280.58" cy="780.146" rx="0.540611" ry="0.383456" fill="#C4C4C4"/>
<ellipse cx="677.258" cy="601.999" rx="0.540611" ry="0.383456" fill="#C4C4C4"/>
<ellipse cx="1282.74" cy="912.99" rx="0.540611" ry="0.383456" fill="#C4C4C4"/>
<ellipse cx="732.401" cy="572.82" rx="0.540611" ry="0.383456" fill="#C4C4C4"/>
<ellipse cx="724.832" cy="522.14" rx="0.540611" ry="0.383456" fill="#C4C4C4"/>
<ellipse cx="404.25" cy="831.979" rx="1.08122" ry="0.767878" fill="#C4C4C4"/>
<ellipse cx="280.45" cy="915.294" rx="0.540611" ry="0.383456" fill="#C4C4C4"/>
<ellipse cx="690.233" cy="525.979" rx="0.540611" ry="0.383456" fill="#C4C4C4"/>
<ellipse cx="655.634" cy="512.925" rx="0.540611" ry="0.383456" fill="#C4C4C4"/>
<ellipse cx="315.049" cy="942.937" rx="0.540611" ry="0.383456" fill="#C4C4C4"/>
<ellipse cx="425.334" cy="543.641" rx="0.540611" ry="0.383456" fill="#C4C4C4"/>
<ellipse cx="414.522" cy="513.693" rx="0.540611" ry="0.383456" fill="#C4C4C4"/>
<ellipse cx="315.049" cy="528.283" rx="0.540611" ry="0.383456" fill="#C4C4C4"/>
<ellipse cx="410.197" cy="538.265" rx="0.540611" ry="0.383456" fill="#C4C4C4"/>
<ellipse cx="1270.85" cy="740.985" rx="0.540611" ry="0.383456" fill="#C4C4C4"/>
<ellipse cx="136.648" cy="92.8951" rx="0.540611" ry="0.383456" fill="#C4C4C4"/>
<ellipse cx="263.151" cy="122.075" rx="0.540611" ry="0.383456" fill="#C4C4C4"/>
<ellipse cx="356.136" cy="102.11" rx="0.540611" ry="0.383456" fill="#C4C4C4"/>
<ellipse cx="298.29" cy="150.104" rx="1.08122" ry="0.767878" fill="#C4C4C4"/>
<ellipse cx="211.252" cy="115.164" rx="0.540611" ry="0.383456" fill="#C4C4C4"/>
<ellipse cx="271.8" cy="21.4834" rx="0.540611" ry="0.383456" fill="#C4C4C4"/>
<ellipse cx="1348.16" cy="598.544" rx="1.08122" ry="0.767878" fill="#C4C4C4"/>
<ellipse cx="319.374" cy="970.58" rx="0.540611" ry="0.383456" fill="#C4C4C4"/>
<ellipse cx="337.755" cy="652.678" rx="0.540611" ry="0.383456" fill="#C4C4C4"/>
<ellipse cx="380.463" cy="637.706" rx="1.08122" ry="0.767878" fill="#C4C4C4"/>
<ellipse cx="345.323" cy="624.268" rx="0.540611" ry="0.383456" fill="#C4C4C4"/>
<ellipse cx="563.19" cy="619.276" rx="1.08122" ry="0.767878" fill="#C4C4C4"/>
<ellipse cx="682.124" cy="548.632" rx="1.08122" ry="0.767878" fill="#C4C4C4"/>
<ellipse cx="129.62" cy="511.006" rx="1.08122" ry="0.767878" fill="#C4C4C4"/>
<ellipse cx="11.7668" cy="666.117" rx="1.08122" ry="0.767878" fill="#C4C4C4"/>
<ellipse cx="53.9344" cy="650.76" rx="1.08122" ry="0.767878" fill="#C4C4C4"/>
<ellipse cx="102.589" cy="176.979" rx="1.08122" ry="0.767878" fill="#C4C4C4"/>
<ellipse cx="91.7771" cy="147.032" rx="1.08122" ry="0.767878" fill="#C4C4C4"/>
<ellipse cx="90.1554" cy="441.512" rx="0.540611" ry="0.383456" fill="#C4C4C4"/>
<ellipse cx="183.14" cy="508.318" rx="0.540611" ry="0.383456" fill="#C4C4C4"/>
<ellipse cx="309.643" cy="450.727" rx="0.540611" ry="0.383456" fill="#C4C4C4"/>
<ellipse cx="218.28" cy="536.346" rx="1.08122" ry="0.767878" fill="#C4C4C4"/>
<ellipse cx="131.242" cy="501.407" rx="0.540611" ry="0.383456" fill="#C4C4C4"/>
<ellipse cx="151.785" cy="159.702" rx="0.540611" ry="0.383456" fill="#C4C4C4"/>
<ellipse cx="1260.04" cy="359.349" rx="0.540611" ry="0.383456" fill="#C4C4C4"/>
<ellipse cx="1218.41" cy="387.378" rx="1.08122" ry="0.767878" fill="#C4C4C4"/>
<ellipse cx="1208.14" cy="352.439" rx="0.540611" ry="0.383456" fill="#C4C4C4"/>
<ellipse cx="1135.7" cy="234.186" rx="0.540611" ry="0.383456" fill="#C4C4C4"/>
<ellipse cx="1032.98" cy="232.65" rx="0.540611" ry="0.383456" fill="#C4C4C4"/>
<ellipse cx="1022.17" cy="202.703" rx="0.540611" ry="0.383456" fill="#C4C4C4"/>
<ellipse cx="1017.84" cy="227.275" rx="0.540611" ry="0.383456" fill="#C4C4C4"/>
<ellipse cx="920.533" cy="308.669" rx="0.540611" ry="0.383456" fill="#C4C4C4"/>
<ellipse cx="922.695" cy="369.332" rx="0.540611" ry="0.383456" fill="#C4C4C4"/>
<ellipse cx="1099.48" cy="414.253" rx="1.08122" ry="0.767878" fill="#C4C4C4"/>
<ellipse cx="1088.66" cy="384.306" rx="1.08122" ry="0.767878" fill="#C4C4C4"/>
<ellipse cx="1148.67" cy="396.975" rx="0.540611" ry="0.383456" fill="#C4C4C4"/>
<ellipse cx="235.039" cy="340.152" rx="0.540611" ry="0.383456" fill="#C4C4C4"/>
<ellipse cx="102.049" cy="315.581" rx="0.540611" ry="0.383456" fill="#C4C4C4"/>
<ellipse cx="94.4801" cy="264.901" rx="0.540611" ry="0.383456" fill="#C4C4C4"/>
<ellipse cx="634.009" cy="271.043" rx="0.540611" ry="0.383456" fill="#C4C4C4"/>
<ellipse cx="832.954" cy="488.353" rx="0.540611" ry="0.383456" fill="#C4C4C4"/>
<ellipse cx="925.939" cy="555.158" rx="0.540611" ry="0.383456" fill="#C4C4C4"/>
<ellipse cx="1366" cy="497.568" rx="0.540611" ry="0.383456" fill="#C4C4C4"/>
<ellipse cx="977.838" cy="386.993" rx="0.540611" ry="0.383456" fill="#C4C4C4"/>
<ellipse cx="844.848" cy="362.421" rx="0.540611" ry="0.383456" fill="#C4C4C4"/>
<ellipse cx="837.279" cy="311.741" rx="0.540611" ry="0.383456" fill="#C4C4C4"/>
<ellipse cx="742.132" cy="360.885" rx="0.540611" ry="0.383456" fill="#C4C4C4"/>
<ellipse cx="726.994" cy="355.51" rx="0.540611" ry="0.383456" fill="#C4C4C4"/>
<ellipse cx="528.05" cy="330.17" rx="0.540611" ry="0.383456" fill="#C4C4C4"/>
<ellipse cx="753.484" cy="470.309" rx="1.08122" ry="0.767878" fill="#C4C4C4"/>
<ellipse cx="19.3352" cy="637.706" rx="1.08122" ry="0.767878" fill="#C4C4C4"/>
<ellipse cx="1346.53" cy="622.732" rx="0.540611" ry="0.383456" fill="#C4C4C4"/>
<ellipse cx="1348.7" cy="683.394" rx="0.540611" ry="0.383456" fill="#C4C4C4"/>
<ellipse cx="1206.52" cy="646.921" rx="1.08122" ry="0.767878" fill="#C4C4C4"/>
<ellipse cx="1248.68" cy="631.562" rx="1.08122" ry="0.767878" fill="#C4C4C4"/>
<ellipse cx="576.164" cy="8.81402" rx="1.08122" ry="0.767878" fill="#C4C4C4"/>
<ellipse cx="721.589" cy="175.059" rx="0.540611" ry="0.383456" fill="#C4C4C4"/>
<ellipse cx="637.253" cy="94.4315" rx="0.540611" ry="0.383456" fill="#C4C4C4"/>
<ellipse cx="781.596" cy="2.6701" rx="1.08122" ry="0.767878" fill="#C4C4C4"/>
<ellipse cx="867.013" cy="120.156" rx="1.08122" ry="0.767878" fill="#C4C4C4"/>
<ellipse cx="1211.92" cy="558.615" rx="1.08122" ry="0.767878" fill="#C4C4C4"/>
<ellipse cx="1355.72" cy="520.221" rx="1.08122" ry="0.767878" fill="#C4C4C4"/>
<ellipse cx="1303.83" cy="513.309" rx="1.08122" ry="0.767878" fill="#C4C4C4"/>
<ellipse cx="1122.72" cy="79.0734" rx="0.540611" ry="0.383456" fill="#C4C4C4"/>
<ellipse cx="1072.44" cy="11.1174" rx="1.08122" ry="0.767878" fill="#C4C4C4"/>
<ellipse cx="1354.1" cy="92.1283" rx="0.540611" ry="0.383456" fill="#C4C4C4"/>
</svg>
